<svg width="32" height="32" viewBox="0 0 32 32" fill="none" xmlns="http://www.w3.org/2000/svg">
<path d="M27.4807 15.7731L23.809 12.6242V8.37346C23.809 8.11247 23.5976 7.90104 23.3369 7.90104H20.8776C20.6166 7.90104 20.4052 8.11247 20.4052 8.37346V9.70233L16.3149 6.19452C16.1357 6.03412 15.8645 6.03412 15.6853 6.19452L4.51965 15.7733C4.36828 15.9027 4.31432 16.1134 4.38488 16.2996C4.45545 16.4859 4.63537 16.608 4.83459 16.6046H8.19128V25.4464C8.19128 25.7074 8.4027 25.9189 8.66345 25.9189H10.3073C10.568 25.9189 10.7797 25.7074 10.7797 25.4464C10.7797 25.1857 10.568 24.9743 10.3073 24.9743H9.13588V16.1324C9.13588 15.8717 8.92446 15.6602 8.66347 15.6602H6.10366L16.0005 7.18398L25.8974 15.6602H23.3373C23.0764 15.6602 22.8649 15.8717 22.8649 16.1324V24.9743H21.6904C21.4296 24.9743 21.2182 25.1857 21.2182 25.4464C21.2182 25.7074 21.4296 25.9189 21.6904 25.9189H23.3374C23.5981 25.9189 23.8095 25.7074 23.8095 25.4464V16.6046H27.1757C27.3749 16.608 27.5549 16.4859 27.6254 16.2996C27.696 16.1134 27.642 15.9027 27.4907 15.7733L27.4807 15.7731ZM21.353 8.84564H22.8645V11.8149L21.353 10.5178V8.84564ZM20.4084 17.7319H11.5915C11.3308 17.7319 11.1191 17.9433 11.1191 18.2043V26.3912C11.1191 26.6522 11.3308 26.8636 11.5915 26.8636H20.4084C20.6694 26.8636 20.8808 26.6522 20.8808 26.3912V18.2043C20.8808 17.9433 20.6694 17.7319 20.4084 17.7319ZM16.6709 18.6765V20.8586L16.5607 20.7924L16.5605 20.7927C16.374 20.6801 16.1345 20.7101 15.9812 20.8649L15.5529 21.2963L15.3325 21.0444V18.6767L16.6709 18.6765ZM19.9394 25.919H12.0675V18.6765H14.3913V21.2209C14.3903 21.3366 14.4318 21.4487 14.5077 21.5356L15.1784 22.2978C15.2648 22.3959 15.3878 22.454 15.5185 22.4582C15.6449 22.4589 15.7663 22.4091 15.8554 22.3198L16.3781 21.7907L16.8852 22.1056C17.0307 22.1928 17.2118 22.195 17.3595 22.1118C17.5072 22.0285 17.599 21.8723 17.6 21.7026V18.6767H19.9364L19.9394 25.919Z" fill="#B8C1CC"/>
</svg>
