<svg width="32" height="32" viewBox="0 0 32 32" fill="none" xmlns="http://www.w3.org/2000/svg">
<circle cx="16" cy="10" r="4" stroke="#B8C1CC" stroke-width="2"/>
<path d="M16 17C20.502 17 24 20.3261 24 24.25V24.251C23.9999 24.2515 23.9998 24.2532 23.999 24.2559C23.9972 24.2618 23.9904 24.2774 23.9736 24.3037C23.9374 24.3605 23.8584 24.4538 23.7002 24.5703C23.3764 24.8086 22.8409 25.0606 22.0811 25.2852C20.5734 25.7307 18.4252 26 16 26C13.5748 26 11.4266 25.7307 9.91895 25.2852C9.15911 25.0606 8.62363 24.8086 8.2998 24.5703C8.14157 24.4538 8.0626 24.3605 8.02637 24.3037C8.0096 24.2774 8.00285 24.2618 8.00098 24.2559C8.00003 24.2528 8.00003 24.2502 8 24.25C8 20.3261 11.498 17 16 17Z" stroke="#B8C1CC" stroke-width="2"/>
</svg>
