<svg width="24" height="24" viewBox="0 0 24 24" fill="none" xmlns="http://www.w3.org/2000/svg">
<path d="M7.36853 1.83716H2.68302C2.4562 1.83716 2.30518 1.98722 2.30518 2.21212V6.82456C2.30518 7.04965 2.45639 7.19952 2.68302 7.19952H7.33086C7.55768 7.19952 7.7087 7.04946 7.7087 6.82456V2.21212C7.74641 1.98703 7.55745 1.83716 7.36853 1.83716ZM6.99069 6.44959H3.06083V2.58711H6.95296V6.44959H6.99069Z" fill="#B8C1CC"/>
<path d="M7.36853 9.2998H2.68302C2.4562 9.2998 2.30518 9.44987 2.30518 9.67477V14.2872C2.30518 14.5123 2.45639 14.6622 2.68302 14.6622H7.33086C7.55768 14.6622 7.7087 14.5121 7.7087 14.2872V9.67477C7.74641 9.48729 7.55745 9.2998 7.36853 9.2998ZM6.99069 13.9496H3.06083V10.0497H6.95296V13.9496H6.99069Z" fill="#B8C1CC"/>
<path d="M7.36853 16.7998H2.68302C2.4562 16.7998 2.30518 16.9499 2.30518 17.1748V21.7872C2.30518 22.0123 2.45639 22.1622 2.68302 22.1622H7.33086C7.55768 22.1622 7.7087 22.0121 7.7087 21.7872V17.1748C7.74641 16.9873 7.55745 16.7998 7.36853 16.7998ZM6.99069 21.4122H3.06083V17.5498H6.95296V21.4122H6.99069Z" fill="#B8C1CC"/>
<path d="M4.19386 5.66197C4.26947 5.737 4.38278 5.77442 4.45839 5.77442C4.57171 5.77442 4.64731 5.737 4.72292 5.66197L6.53674 3.86197C6.68796 3.7119 6.68796 3.487 6.53674 3.33691C6.38553 3.18685 6.1589 3.18685 6.00766 3.33691L4.45838 4.87439L4.04264 4.46182C3.89143 4.31175 3.6648 4.31175 3.51356 4.46182C3.36234 4.61188 3.36234 4.83678 3.51356 4.98687L4.19386 5.66197Z" fill="#B8C1CC"/>
<path d="M4.19386 13.162C4.26947 13.237 4.34508 13.2744 4.45839 13.2744C4.57171 13.2744 4.64731 13.237 4.72292 13.162L6.53674 11.362C6.68796 11.2119 6.68796 10.987 6.53674 10.8369C6.38553 10.6868 6.1589 10.6868 6.00766 10.8369L4.45838 12.3744L4.04264 11.9618C3.89143 11.8118 3.6648 11.8118 3.51356 11.9618C3.36234 12.1119 3.36234 12.3368 3.51356 12.4869L4.19386 13.162Z" fill="#B8C1CC"/>
<path d="M4.19386 20.662C4.26947 20.737 4.38278 20.7744 4.45839 20.7744C4.57171 20.7744 4.64731 20.737 4.72292 20.662L6.53674 18.862C6.68796 18.7119 6.68796 18.487 6.53674 18.3369C6.38553 18.1868 6.1589 18.1868 6.00766 18.3369L4.45838 19.8744L4.04264 19.4618C3.89143 19.3118 3.6648 19.3118 3.51356 19.4618C3.36234 19.6119 3.36234 19.8368 3.51356 19.9869L4.19386 20.662Z" fill="#B8C1CC"/>
<path d="M23.6547 13.4621H19.4225C19.1957 13.4621 19.0446 13.6122 19.0446 13.8371C18.2889 13.5746 18.5535 13.7246 18.1754 13.5371L18.1756 5.88733C18.1756 5.77488 18.1379 5.69985 18.0623 5.62481L12.5076 0.112453C12.432 0.037615 12.3187 0 12.2431 0H0.377842C0.151022 0 0 0.150063 0 0.374964V23.625C0 23.8501 0.151215 24 0.377842 24H17.7601C17.987 24 18.138 23.8499 18.138 23.625V21.4501H19.0072C19.0449 21.6376 19.1961 21.75 19.385 21.75H23.6173C23.8441 21.75 23.9952 21.6 23.9952 21.3751V13.8378C24.0329 13.6129 23.8439 13.4628 23.655 13.4628L23.6547 13.4621ZM19.0446 14.587V20.6997H11.7519C11.2228 20.6997 11.1852 20.2871 11.1852 20.1746C11.1852 20.0245 11.2229 19.9121 11.2985 19.7996C11.3741 19.6872 11.5253 19.6496 11.6763 19.6496C11.9031 19.6496 12.0542 19.4995 12.0542 19.2746C12.0542 19.0495 11.903 18.8996 11.6763 18.8996H11.1472C10.6182 18.8996 10.5805 18.4871 10.5805 18.3746C10.5805 18.1871 10.6938 17.8495 11.1096 17.8495C11.2985 17.8495 11.4497 17.6995 11.4874 17.512C11.4874 17.3245 11.3741 17.137 11.1852 17.0994H10.9206C10.316 17.1368 10.0893 17.0244 10.0138 16.7245C9.97605 16.5744 10.0138 16.3869 10.0894 16.2745C10.2027 16.162 10.3539 16.087 10.5051 16.087C10.7319 16.087 10.8829 15.9369 10.8829 15.712C10.8829 15.4869 10.7317 15.337 10.5051 15.337H9.93835C9.52261 15.337 9.40927 14.9995 9.40927 14.812C9.40927 14.737 9.44698 14.2869 9.97602 14.2869H12.6211C13.2258 14.2869 13.717 14.0244 13.9438 13.6119C14.1327 13.1993 14.2083 12.4868 13.3391 11.3619C13.0369 10.9869 12.9234 10.4993 13.0746 10.1244C13.2635 9.5993 13.7926 9.3744 14.1327 9.33682C14.095 12.0742 16.8157 13.6867 18.0248 14.2494C18.0624 14.3246 19.0448 14.5871 19.0448 14.5871L19.0446 14.587ZM12.6207 1.27449L16.8907 5.51195H12.6207V1.27449ZM17.4197 23.2493H0.793307V0.749339H11.865V5.88687C11.865 6.11197 12.0162 6.26184 12.2429 6.26184H17.4198V13.0868C16.2861 12.3743 14.888 11.0994 14.9258 9.33679C14.9258 9.14931 14.8502 8.92422 14.6989 8.81174C14.5477 8.66168 14.3211 8.62426 14.1322 8.62426C13.263 8.73671 12.6585 9.22433 12.394 9.89921C12.1672 10.5367 12.3184 11.2492 12.7718 11.8492C13.263 12.4493 13.4521 13.0117 13.3009 13.2743C13.1876 13.4994 12.8098 13.5368 12.6585 13.5368H10.0134C9.14421 13.5368 8.69077 14.1743 8.69077 14.8117C8.69077 15.2617 8.9553 15.7492 9.40875 15.9742C9.25753 16.2742 9.21983 16.5743 9.29543 16.9117C9.40875 17.3617 9.71117 17.6242 10.0134 17.7366C9.9001 17.9241 9.8622 18.1492 9.8622 18.3741C9.8622 18.8241 10.1267 19.3115 10.5802 19.5366C10.4669 19.7241 10.429 19.9492 10.429 20.1741C10.429 20.8116 10.8824 21.4491 11.7516 21.4491H17.4197L17.4197 23.2493ZM23.2768 21.0367H19.8004V14.2117H23.2768V21.0367Z" fill="#B8C1CC"/>
</svg>
